<svg xmlns="http://www.w3.org/2000/svg" viewBox="0 0 512 640">

  <g id="background">
    <rect width="512" height="640" fill="#0B0608"/>
  </g>

  <g id="corner-ornaments">
    <line x1="28" y1="68" x2="28" y2="40" stroke="#C41E3A" stroke-width="2"/>
    <line x1="68" y1="28" x2="40" y2="28" stroke="#C41E3A" stroke-width="2"/>
    <line x1="36" y1="74" x2="36" y2="48" stroke="#5C1428" stroke-width="1.5"/>
    <line x1="74" y1="36" x2="48" y2="36" stroke="#5C1428" stroke-width="1.5"/>
    <polygon points="28,28 40,34 34,40 22,34" fill="#C41E3A"/>

    <line x1="484" y1="68" x2="484" y2="40" stroke="#C41E3A" stroke-width="2"/>
    <line x1="444" y1="28" x2="472" y2="28" stroke="#C41E3A" stroke-width="2"/>
    <line x1="476" y1="74" x2="476" y2="48" stroke="#5C1428" stroke-width="1.5"/>
    <line x1="438" y1="36" x2="464" y2="36" stroke="#5C1428" stroke-width="1.5"/>
    <polygon points="484,28 472,34 478,40 490,34" fill="#C41E3A"/>

    <line x1="28" y1="572" x2="28" y2="600" stroke="#C41E3A" stroke-width="2"/>
    <line x1="68" y1="612" x2="40" y2="612" stroke="#C41E3A" stroke-width="2"/>
    <line x1="36" y1="566" x2="36" y2="594" stroke="#5C1428" stroke-width="1.5"/>
    <line x1="74" y1="604" x2="48" y2="604" stroke="#5C1428" stroke-width="1.5"/>
    <polygon points="28,612 40,606 34,600 22,606" fill="#C41E3A"/>

    <line x1="484" y1="572" x2="484" y2="600" stroke="#C41E3A" stroke-width="2"/>
    <line x1="444" y1="612" x2="472" y2="612" stroke="#C41E3A" stroke-width="2"/>
    <line x1="476" y1="566" x2="476" y2="594" stroke="#5C1428" stroke-width="1.5"/>
    <line x1="438" y1="604" x2="464" y2="604" stroke="#5C1428" stroke-width="1.5"/>
    <polygon points="484,612 472,606 478,600 490,606" fill="#C41E3A"/>
  </g>

  <g id="top-rule">
    <line x1="80" y1="92" x2="432" y2="92" stroke="#5C1428" stroke-width="1.5"/>
    <line x1="80" y1="95" x2="432" y2="95" stroke="#C41E3A" stroke-width="0.8" stroke-opacity="0.7"/>
    <line x1="80" y1="98" x2="432" y2="98" stroke="#5C1428" stroke-width="1.5"/>
    <polygon points="256,92 260,95 256,98 252,95" fill="#C41E3A"/>
    <polygon points="180,95 184,92 188,95 184,98" fill="#8B6B4A" opacity="0.8"/>
    <polygon points="324,95 328,92 332,95 328,98" fill="#8B6B4A" opacity="0.8"/>
    <polyline points="100,88 92,95 100,102" fill="none" stroke="#5C1428" stroke-width="1.5"/>
    <polyline points="412,88 420,95 412,102" fill="none" stroke="#5C1428" stroke-width="1.5"/>
  </g>

  <!-- Bottom rule drawn BEFORE icon so figure appears to emerge through it -->
  <g id="bottom-rule">
    <line x1="80" y1="450" x2="432" y2="450" stroke="#5C1428" stroke-width="1.5"/>
    <line x1="80" y1="453" x2="432" y2="453" stroke="#C41E3A" stroke-width="0.8" stroke-opacity="0.7"/>
    <line x1="80" y1="456" x2="432" y2="456" stroke="#5C1428" stroke-width="1.5"/>
    <polygon points="256,450 260,453 256,456 252,453" fill="#C41E3A"/>
    <polygon points="180,453 184,450 188,453 184,456" fill="#8B6B4A" opacity="0.8"/>
    <polygon points="324,453 328,450 332,453 328,456" fill="#8B6B4A" opacity="0.8"/>
    <polyline points="100,446 92,453 100,460" fill="none" stroke="#5C1428" stroke-width="1.5"/>
    <polyline points="412,446 420,453 412,460" fill="none" stroke="#5C1428" stroke-width="1.5"/>
  </g>

  <g id="icon-figure">

    <!-- Crown/gather — where strapless fabric anchors at top -->
    <path fill="#C41E3A" d="
      M 256 110
      C 246 110, 238 114, 236 120
      C 234 126, 238 132, 246 134
      C 250 136, 254 136, 256 134
      C 258 136, 262 136, 266 134
      C 274 132, 278 126, 276 120
      C 274 114, 266 110, 256 110 Z
    "/>
    <ellipse cx="251" cy="119" rx="4" ry="2.5" fill="#F5EDE6" opacity="0.28" transform="rotate(-15 251 119)"/>

    <!-- Wine drape wing — right side, creates depth and fabric dimension -->
    <path fill="#5C1428" d="
      M 258 122
      C 268 122, 285 130, 300 146
      C 316 164, 324 186, 322 210
      C 320 234, 311 254, 311 276
      C 311 298, 321 318, 328 346
      C 334 374, 330 402, 320 426
      C 310 448, 294 466, 280 476
      C 272 482, 264 487, 258 488
      C 266 480, 278 463, 284 443
      C 292 417, 296 389, 294 363
      C 292 337, 281 317, 281 293
      C 281 269, 291 249, 295 225
      C 299 199, 297 173, 284 151
      C 273 132, 265 124, 258 122 Z
    "/>

    <!-- Main crimson body — pronounced hourglass silhouette from back view -->
    <path fill="#C41E3A" d="
      M 256 118
      C 246 118, 230 122, 220 133
      C 208 145, 204 162, 202 180
      C 200 198, 203 216, 208 234
      C 212 252, 218 268, 218 284
      C 218 304, 208 321, 202 344
      C 195 370, 197 396, 206 420
      C 213 438, 221 452, 229 463
      C 233 469, 238 474, 241 478
      C 244 481, 250 484, 256 484
      C 262 484, 268 481, 271 478
      C 274 474, 279 469, 283 463
      C 291 452, 299 438, 306 420
      C 315 396, 317 370, 310 344
      C 304 321, 294 304, 294 284
      C 294 268, 300 252, 304 234
      C 309 216, 311 198, 309 180
      C 307 162, 302 145, 292 133
      C 282 122, 266 118, 256 118 Z
    "/>

    <!-- Dress slit on right — dark opening suggesting lateral cut -->
    <path fill="#0B0608" opacity="0.68" d="
      M 308 354
      C 311 370, 314 388, 314 406
      C 314 422, 313 436, 311 450
      C 310 458, 308 466, 306 473
      L 311 471
      C 313 464, 315 456, 316 448
      C 318 434, 319 420, 319 404
      C 319 386, 317 368, 313 352 Z
    "/>

    <!-- Neckline — soft strapless bustier line -->
    <path fill="none" stroke="#5C1428" stroke-width="1.6" stroke-linecap="round"
          d="M 204 180 C 220 172, 238 168, 256 168 C 274 168, 292 172, 308 180"/>

    <!-- Waist gather -->
    <path fill="none" stroke="#5C1428" stroke-width="1.2" stroke-linecap="round"
          d="M 205 282 C 221 275, 239 272, 256 272 C 273 272, 291 275, 307 282"/>

    <!-- Hip accent — subtle curve marking the flare -->
    <path fill="none" stroke="#7A1E35" stroke-width="0.9" stroke-linecap="round" opacity="0.55"
          d="M 197 344 C 204 336, 215 332, 228 332"/>

    <!-- Silk highlight — left side flowing sheen -->
    <path fill="none" stroke="#F5EDE6" stroke-width="2.0" stroke-linecap="round" opacity="0.22"
          d="M 214 150 C 208 180, 206 216, 210 250 C 214 284, 218 306, 214 340 C 210 374, 202 398, 206 430"/>

    <!-- Silk highlight — right side -->
    <path fill="none" stroke="#F5EDE6" stroke-width="1.4" stroke-linecap="round" opacity="0.12"
          d="M 296 152 C 302 182, 306 218, 302 252 C 298 286, 292 308, 296 342"/>

  </g>

  <g id="wordmark">

    <!-- Separator -->
    <polygon points="256,468 260,472 256,476 252,472" fill="#C41E3A"/>
    <circle cx="232" cy="472" r="1.5" fill="#5C1428"/>
    <circle cx="280" cy="472" r="1.5" fill="#5C1428"/>

    <!-- RAFAELLA — path-based serif caps, cap height 38px, baseline y=514 -->

    <!-- R -->
    <path fill="#F5EDE6" fill-rule="evenodd" d="
      M 88 476 L 88 514 L 96 514 L 96 498 L 106 498 L 118 514 L 127 514
      L 114 496 C 121 493, 125 487, 125 479 C 125 470, 118 476, 106 476 Z
      M 96 483 L 105 483 C 111 483, 117 485, 117 490 C 117 495, 111 497, 105 497 L 96 497 Z
    "/>

    <!-- A -->
    <path fill="#F5EDE6" fill-rule="evenodd" d="
      M 149 476 L 130 514 L 138 514 L 143 500 L 163 500 L 168 514 L 176 514 L 157 476 Z
      M 153 488 L 161 488 L 157 498 L 149 498 Z
    "/>

    <!-- F -->
    <path fill="#F5EDE6" d="
      M 183 476 L 183 514 L 191 514 L 191 498 L 211 498 L 211 491 L 191 491 L 191 483 L 215 483 L 215 476 Z
    "/>

    <!-- A -->
    <path fill="#F5EDE6" fill-rule="evenodd" d="
      M 236 476 L 217 514 L 225 514 L 230 500 L 250 500 L 255 514 L 263 514 L 244 476 Z
      M 240 488 L 248 488 L 244 498 L 236 498 Z
    "/>

    <!-- E -->
    <path fill="#F5EDE6" d="
      M 270 476 L 270 514 L 306 514 L 306 507 L 278 507 L 278 498 L 301 498 L 301 491 L 278 491 L 278 483 L 304 483 L 304 476 Z
    "/>

    <!-- L -->
    <path fill="#F5EDE6" d="
      M 313 476 L 313 514 L 342 514 L 342 507 L 321 507 L 321 476 Z
    "/>

    <!-- L -->
    <path fill="#F5EDE6" d="
      M 349 476 L 349 514 L 378 514 L 378 507 L 357 507 L 357 476 Z
    "/>

    <!-- A -->
    <path fill="#F5EDE6" fill-rule="evenodd" d="
      M 400 476 L 381 514 L 389 514 L 394 500 L 414 500 L 419 514 L 427 514 L 408 476 Z
      M 404 488 L 412 488 L 408 498 L 400 498 Z
    "/>

    <!-- COSTA — system serif, larger than iteration-3 -->
    <text x="256" y="557"
      text-anchor="middle"
      font-family="Georgia, 'Times New Roman', serif"
      font-size="26"
      font-weight="400"
      fill="#F5EDE6"
      opacity="0.82"
      letter-spacing="12">COSTA</text>

    <!-- Tagline -->
    <text x="256" y="594"
      text-anchor="middle"
      font-family="Georgia, 'Times New Roman', serif"
      font-size="9.5"
      fill="#5C1428"
      letter-spacing="4.5"
      opacity="0.9">DESIGNER DE MODA</text>

  </g>

</svg>
