<svg xmlns="http://www.w3.org/2000/svg" viewBox="0 0 1024 512">

  <!-- BACKGROUND -->
  <g id="background">
    <rect width="1024" height="512" fill="#0B0608"/>
  </g>

  <!-- ICON: Silhueta feminina de costas, vestindo tubinho strapless -->
  <g id="icon">

    <!-- Silhueta principal -->
    <path id="silhouette" fill="#C41E3A" d="
      M 200 70
      C 200 70, 174 76, 162 90
      C 148 106, 144 126, 142 146
      C 140 168, 142 184, 146 200
      C 150 218, 156 230, 154 248
      C 152 266, 144 280, 142 300
      C 138 324, 140 348, 146 370
      C 152 392, 162 410, 164 432
      C 166 450, 162 466, 162 466
      C 162 466, 170 470, 178 470
      C 186 470, 194 466, 196 458
      C 200 444, 198 426, 200 408
      C 202 388, 210 372, 214 352
      C 218 330, 218 308, 216 286
      C 214 264, 208 248, 208 228
      C 208 208, 214 192, 216 172
      C 218 152, 218 132, 212 114
      C 206 96, 200 70, 200 70 Z
    "/>

    <!-- Fenda do vestido (sugestão de abertura lateral direita) -->
    <path fill="#0B0608" opacity="0.7" d="M 212 370 C 213 384, 214 400, 214 416 C 214 430, 213 444, 212 454 L 214 454 C 215 444, 216 430, 216 416 C 216 400, 215 384, 214 370 Z"/>

    <!-- Linha do decote strapless -->
    <path fill="none" stroke="#5C1428" stroke-width="1.5" stroke-linecap="round" d="M 146 148 C 162 140, 182 136, 200 136 C 218 136, 238 140, 254 148"/>

    <!-- Linha da cintura gathered waist -->
    <path fill="none" stroke="#5C1428" stroke-width="1.2" stroke-linecap="round" d="M 144 248 C 162 240, 182 237, 200 237 C 218 237, 238 240, 256 248"/>

    <!-- Reflexo/highlight de seda -->
    <path fill="none" stroke="#F5EDE6" stroke-width="1.5" stroke-linecap="round" opacity="0.15" d="M 152 110 C 148 140, 146 176, 150 210 C 154 244, 160 268, 158 302 C 156 336, 150 362, 152 398"/>

  </g>

  <!-- DIVISÓRIA ART DÉCO -->
  <g id="divider-deco">

    <!-- Linhas verticais triplas -->
    <line x1="330" y1="90" x2="330" y2="422" stroke="#5C1428" stroke-width="1"/>
    <line x1="336" y1="90" x2="336" y2="422" stroke="#C41E3A" stroke-width="0.6" stroke-opacity="0.6"/>
    <line x1="342" y1="90" x2="342" y2="422" stroke="#5C1428" stroke-width="1"/>

    <!-- Losango central -->
    <polygon points="336,256 340,260 336,264 332,260" fill="#C41E3A"/>

    <!-- Losangos secundários -->
    <polygon points="336,200 340,204 336,208 332,204" fill="#8B6B4A" opacity="0.7"/>
    <polygon points="336,312 340,316 336,320 332,316" fill="#8B6B4A" opacity="0.7"/>

    <!-- Chevron topo -->
    <polyline points="324,100 330,90 336,100" fill="none" stroke="#C41E3A" stroke-width="1.5"/>

    <!-- Chevron base -->
    <polyline points="324,412 330,422 336,412" fill="none" stroke="#C41E3A" stroke-width="1.5"/>

  </g>

  <!-- WORDMARK -->
  <g id="wordmark">

    <!-- Régua ornamental superior acima de RAFAELLA -->
    <line x1="370" y1="170" x2="980" y2="170" stroke="#5C1428" stroke-width="1.2"/>
    <line x1="370" y1="173" x2="980" y2="173" stroke="#C41E3A" stroke-width="0.7" stroke-opacity="0.7"/>
    <line x1="370" y1="176" x2="980" y2="176" stroke="#5C1428" stroke-width="1.2"/>
    <!-- Losango no centro da régua superior -->
    <polygon points="676,170 680,173 676,176 672,173" fill="#C41E3A"/>

    <!-- RAFAELLA — letra por letra como paths, cap height ~90px, baseline y=276 -->

    <!-- R -->
    <path fill="#F5EDE6" d="M 380 182 L 380 276 L 390 276 L 390 236 L 406 236 L 424 276 L 436 276 L 416 233 C 427 228, 433 218, 433 205 C 433 187, 421 182, 402 182 Z M 390 193 L 402 193 C 412 193, 422 197, 422 210 C 422 224, 412 228, 402 228 L 390 228 Z"/>

    <!-- A -->
    <path fill="#F5EDE6" d="M 462 182 L 434 276 L 445 276 L 452 252 L 482 252 L 489 276 L 501 276 L 472 182 Z M 467 193 L 479 238 L 455 238 Z"/>

    <!-- F -->
    <path fill="#F5EDE6" d="M 514 182 L 514 276 L 525 276 L 525 230 L 560 230 L 560 220 L 525 220 L 525 193 L 563 193 L 563 182 Z"/>

    <!-- A -->
    <path fill="#F5EDE6" d="M 590 182 L 562 276 L 573 276 L 580 252 L 610 252 L 617 276 L 629 276 L 600 182 Z M 595 193 L 607 238 L 583 238 Z"/>

    <!-- E -->
    <path fill="#F5EDE6" d="M 642 182 L 642 276 L 694 276 L 694 266 L 653 266 L 653 230 L 688 230 L 688 220 L 653 220 L 653 193 L 692 193 L 692 182 Z"/>

    <!-- L -->
    <path fill="#F5EDE6" d="M 706 182 L 706 276 L 752 276 L 752 266 L 717 266 L 717 182 Z"/>

    <!-- L -->
    <path fill="#F5EDE6" d="M 765 182 L 765 276 L 811 276 L 811 266 L 776 266 L 776 182 Z"/>

    <!-- A -->
    <path fill="#F5EDE6" d="M 838 182 L 810 276 L 821 276 L 828 252 L 858 252 L 865 276 L 877 276 L 848 182 Z M 843 193 L 855 238 L 831 238 Z"/>

    <!-- Régua ornamental inferior entre RAFAELLA e COSTA -->
    <line x1="370" y1="294" x2="980" y2="294" stroke="#5C1428" stroke-width="1.2"/>
    <line x1="370" y1="297" x2="980" y2="297" stroke="#C41E3A" stroke-width="0.7" stroke-opacity="0.7"/>
    <line x1="370" y1="300" x2="980" y2="300" stroke="#5C1428" stroke-width="1.2"/>
    <!-- Losango central -->
    <polygon points="676,294 680,297 676,300 672,297" fill="#C41E3A"/>

    <!-- Ornamento separador entre as réguas -->
    <circle cx="595" cy="312" r="1.8" fill="#5C1428"/>
    <circle cx="610" cy="312" r="1.8" fill="#5C1428"/>
    <polygon points="626,308 630,312 626,316 622,312" fill="#C41E3A"/>
    <circle cx="642" cy="312" r="1.8" fill="#5C1428"/>
    <circle cx="657" cy="312" r="1.8" fill="#5C1428"/>

    <!-- COSTA — paths, cap height ~64px, baseline y=388 -->

    <!-- C -->
    <path fill="#F5EDE6" opacity="0.85" d="M 504 326 C 484 326, 468 343, 468 364 C 468 385, 484 402, 504 402 C 517 402, 528 395, 535 385 L 526 380 C 521 388, 513 392, 504 392 C 490 392, 479 380, 479 364 C 479 348, 490 336, 504 336 C 513 336, 521 340, 526 348 L 535 343 C 528 333, 517 326, 504 326 Z"/>

    <!-- O -->
    <path fill="#F5EDE6" opacity="0.85" d="M 576 326 C 555 326, 539 343, 539 364 C 539 385, 555 402, 576 402 C 597 402, 613 385, 613 364 C 613 343, 597 326, 576 326 Z M 576 336 C 591 336, 602 349, 602 364 C 602 379, 591 392, 576 392 C 561 392, 550 379, 550 364 C 550 349, 561 336, 576 336 Z"/>

    <!-- S -->
    <path fill="#F5EDE6" opacity="0.85" d="M 644 326 C 630 326, 620 335, 620 348 C 620 362, 631 367, 644 372 C 655 376, 662 380, 662 390 C 662 397, 655 402, 645 402 C 636 402, 629 398, 624 390 L 616 395 C 622 405, 633 412, 645 412 C 661 412, 673 402, 673 388 C 673 374, 662 369, 648 364 C 638 360, 631 356, 631 348 C 631 341, 637 336, 645 336 C 653 336, 659 340, 663 347 L 671 342 C 665 333, 655 326, 644 326 Z"/>

    <!-- T -->
    <path fill="#F5EDE6" opacity="0.85" d="M 684 326 L 684 336 L 705 336 L 705 412 L 716 412 L 716 336 L 737 336 L 737 326 Z"/>

    <!-- A -->
    <path fill="#F5EDE6" opacity="0.85" d="M 775 326 L 747 412 L 758 412 L 765 390 L 795 390 L 802 412 L 814 412 L 785 326 Z M 780 336 L 792 378 L 768 378 Z"/>

    <!-- Régua ornamental inferior abaixo de COSTA -->
    <line x1="370" y1="424" x2="980" y2="424" stroke="#5C1428" stroke-width="1.2"/>
    <line x1="370" y1="427" x2="980" y2="427" stroke="#C41E3A" stroke-width="0.7" stroke-opacity="0.7"/>
    <line x1="370" y1="430" x2="980" y2="430" stroke="#5C1428" stroke-width="1.2"/>

    <!-- Tagline micro "DESIGNER DE MODA" como série de rects sutis -->
    <g opacity="0.35">
      <rect x="500" y="442" width="7" height="1.2" fill="#F5EDE6"/>
      <rect x="511" y="442" width="7" height="1.2" fill="#F5EDE6"/>
      <rect x="522" y="442" width="7" height="1.2" fill="#F5EDE6"/>
      <rect x="533" y="442" width="7" height="1.2" fill="#F5EDE6"/>
      <circle cx="545" cy="442.6" r="1.4" fill="#C41E3A"/>
      <rect x="551" y="442" width="7" height="1.2" fill="#F5EDE6"/>
      <rect x="562" y="442" width="7" height="1.2" fill="#F5EDE6"/>
      <circle cx="574" cy="442.6" r="1.4" fill="#C41E3A"/>
      <rect x="580" y="442" width="7" height="1.2" fill="#F5EDE6"/>
      <rect x="591" y="442" width="7" height="1.2" fill="#F5EDE6"/>
      <rect x="602" y="442" width="7" height="1.2" fill="#F5EDE6"/>
      <rect x="613" y="442" width="7" height="1.2" fill="#F5EDE6"/>
    </g>

  </g>

</svg>
