<svg xmlns="http://www.w3.org/2000/svg" viewBox="0 0 512 512">

  <!-- ═══════════════════════════════════════════════════════
       RAFAELLA COSTA — Monogram RC — Art Déco Hollywood
       Concept 3: Golden Age Cinema Noir
  ═══════════════════════════════════════════════════════ -->

  <defs>
    <!-- Crimson glow for C letter -->
    <filter id="crimson-glow" x="-20%" y="-20%" width="140%" height="140%">
      <feGaussianBlur in="SourceGraphic" stdDeviation="3" result="blur"/>
      <feMerge><feMergeNode in="blur"/><feMergeNode in="SourceGraphic"/></feMerge>
    </filter>
  </defs>

  <!-- ═══ BACKGROUND ═══ -->
  <g id="background">
    <rect width="512" height="512" fill="#0B0608"/>
    <!-- Subtle vignette corners -->
    <rect width="512" height="512" fill="url(#vignette)" opacity="0.4"/>
  </g>

  <!-- ═══ FRAME ═══ -->
  <g id="frame">

    <!-- Outer rectangle border — wine -->
    <rect x="36" y="36" width="440" height="440" fill="none" stroke="#5C1428" stroke-width="2"/>

    <!-- Inner rectangle border — wine -->
    <rect x="44" y="44" width="424" height="424" fill="none" stroke="#5C1428" stroke-width="1"/>

    <!-- Second inner line — crimson, very thin -->
    <rect x="52" y="52" width="408" height="408" fill="none" stroke="#C41E3A" stroke-width="1.5" stroke-opacity="0.6"/>

    <!-- Third inner line — wine -->
    <rect x="60" y="60" width="392" height="392" fill="none" stroke="#5C1428" stroke-width="1.5"/>

    <!-- ── Corner Ornaments (Art Déco diamonds + chevrons) ── -->

    <!-- TOP-LEFT CORNER -->
    <!-- Diamond centerpoint -->
    <polygon points="36,36 52,44 44,52 28,44" fill="#C41E3A"/>
    <!-- Chevron lines -->
    <line x1="36" y1="80" x2="36" y2="56" stroke="#C41E3A" stroke-width="2"/>
    <line x1="80" y1="36" x2="56" y2="36" stroke="#C41E3A" stroke-width="2"/>
    <line x1="44" y1="86" x2="44" y2="62" stroke="#5C1428" stroke-width="1.5"/>
    <line x1="86" y1="44" x2="62" y2="44" stroke="#5C1428" stroke-width="1.5"/>
    <!-- Small diamond accent -->
    <polygon points="36,92 40,96 36,100 32,96" fill="#C41E3A"/>
    <polygon points="92,36 96,40 100,36 96,32" fill="#C41E3A"/>

    <!-- TOP-RIGHT CORNER -->
    <polygon points="476,36 492,44 484,52 468,44" fill="#C41E3A"/>
    <line x1="476" y1="80" x2="476" y2="56" stroke="#C41E3A" stroke-width="2"/>
    <line x1="432" y1="36" x2="456" y2="36" stroke="#C41E3A" stroke-width="2"/>
    <line x1="468" y1="86" x2="468" y2="62" stroke="#5C1428" stroke-width="1.5"/>
    <line x1="426" y1="44" x2="450" y2="44" stroke="#5C1428" stroke-width="1.5"/>
    <polygon points="476,92 480,96 476,100 472,96" fill="#C41E3A"/>
    <polygon points="420,36 416,40 412,36 416,32" fill="#C41E3A"/>

    <!-- BOTTOM-LEFT CORNER -->
    <polygon points="36,476 52,468 44,460 28,468" fill="#C41E3A"/>
    <line x1="36" y1="432" x2="36" y2="456" stroke="#C41E3A" stroke-width="2"/>
    <line x1="80" y1="476" x2="56" y2="476" stroke="#C41E3A" stroke-width="2"/>
    <line x1="44" y1="426" x2="44" y2="450" stroke="#5C1428" stroke-width="1.5"/>
    <line x1="86" y1="468" x2="62" y2="468" stroke="#5C1428" stroke-width="1.5"/>
    <polygon points="36,420 40,416 36,412 32,416" fill="#C41E3A"/>
    <polygon points="92,476 96,472 100,476 96,480" fill="#C41E3A"/>

    <!-- BOTTOM-RIGHT CORNER -->
    <polygon points="476,476 492,468 484,460 468,468" fill="#C41E3A"/>
    <line x1="476" y1="432" x2="476" y2="456" stroke="#C41E3A" stroke-width="2"/>
    <line x1="432" y1="476" x2="456" y2="476" stroke="#C41E3A" stroke-width="2"/>
    <line x1="468" y1="426" x2="468" y2="450" stroke="#5C1428" stroke-width="1.5"/>
    <line x1="426" y1="468" x2="450" y2="468" stroke="#5C1428" stroke-width="1.5"/>
    <polygon points="476,420 480,416 476,412 472,416" fill="#C41E3A"/>
    <polygon points="420,476 416,472 412,476 416,480" fill="#C41E3A"/>

    <!-- Mid-side decorative small diamonds -->
    <!-- Top center -->
    <polygon points="256,38 260,43 256,48 252,43" fill="#C41E3A"/>
    <polygon points="256,46 259,50 256,54 253,50" fill="#5C1428"/>
    <!-- Bottom center -->
    <polygon points="256,474 260,469 256,464 252,469" fill="#C41E3A"/>
    <polygon points="256,466 259,462 256,458 253,462" fill="#5C1428"/>
    <!-- Left center -->
    <polygon points="38,256 43,252 48,256 43,260" fill="#C41E3A"/>
    <polygon points="46,256 50,253 54,256 50,259" fill="#5C1428"/>
    <!-- Right center -->
    <polygon points="474,256 469,252 464,256 469,260" fill="#C41E3A"/>
    <polygon points="466,256 462,253 458,256 462,259" fill="#5C1428"/>

  </g>

  <!-- ═══ DETAILS — Art Déco geometric ornaments ═══ -->
  <g id="details">

    <!-- Top horizontal rule above monogram -->
    <line x1="100" y1="142" x2="412" y2="142" stroke="#5C1428" stroke-width="1.5"/>
    <line x1="100" y1="146" x2="412" y2="146" stroke="#C41E3A" stroke-width="1" stroke-opacity="0.8"/>
    <line x1="100" y1="150" x2="412" y2="150" stroke="#5C1428" stroke-width="1.5"/>

    <!-- Top rule center diamond -->
    <polygon points="256,142 263,146 256,150 249,146" fill="#C41E3A"/>
    <!-- Top rule flanking small diamonds -->
    <polygon points="196,146 200,142 204,146 200,150" fill="#8B6B4A" opacity="0.8"/>
    <polygon points="308,146 312,142 316,146 312,150" fill="#8B6B4A" opacity="0.8"/>
    <!-- Flanking chevron brackets -->
    <polyline points="120,138 112,146 120,154" fill="none" stroke="#5C1428" stroke-width="1.5"/>
    <polyline points="392,138 400,146 392,154" fill="none" stroke="#5C1428" stroke-width="1.5"/>
    <polyline points="128,140 122,146 128,152" fill="none" stroke="#C41E3A" stroke-width="1.5" stroke-opacity="0.7"/>
    <polyline points="384,140 390,146 384,152" fill="none" stroke="#C41E3A" stroke-width="1.5" stroke-opacity="0.7"/>

    <!-- Bottom horizontal rule below monogram -->
    <line x1="100" y1="362" x2="412" y2="362" stroke="#5C1428" stroke-width="1.5"/>
    <line x1="100" y1="366" x2="412" y2="366" stroke="#C41E3A" stroke-width="1" stroke-opacity="0.8"/>
    <line x1="100" y1="370" x2="412" y2="370" stroke="#5C1428" stroke-width="1.5"/>

    <!-- Bottom rule center diamond -->
    <polygon points="256,362 263,366 256,370 249,366" fill="#C41E3A"/>
    <!-- Bottom rule flanking small diamonds -->
    <polygon points="196,366 200,362 204,366 200,370" fill="#8B6B4A" opacity="0.8"/>
    <polygon points="308,366 312,362 316,366 312,370" fill="#8B6B4A" opacity="0.8"/>
    <!-- Flanking chevron brackets -->
    <polyline points="120,358 112,366 120,374" fill="none" stroke="#5C1428" stroke-width="1.5"/>
    <polyline points="392,358 400,366 392,374" fill="none" stroke="#5C1428" stroke-width="1.5"/>
    <polyline points="128,360 122,366 128,372" fill="none" stroke="#C41E3A" stroke-width="1.5" stroke-opacity="0.7"/>
    <polyline points="384,360 390,366 384,372" fill="none" stroke="#C41E3A" stroke-width="1.5" stroke-opacity="0.7"/>

    <!-- Ornament separator between R and C — four-pointed star ✦ -->
    <!-- Vertical bar -->
    <rect x="253.5" y="185" width="5" height="142" fill="#8B6B4A" opacity="0.5"/>
    <!-- Star at center -->
    <polygon points="256,247 259,254 266,254 260,258 262,265 256,261 250,265 252,258 246,254 253,254" fill="#C41E3A"/>
    <polygon points="256,244 258,249 263,249 259,252 260,257 256,254 252,257 253,252 249,249 254,249" fill="#F5EDE6"/>

    <!-- Small top ornament above RC separator -->
    <polygon points="256,177 259,182 256,187 253,182" fill="#8B6B4A" opacity="0.9"/>
    <!-- Small bottom ornament below RC separator -->
    <polygon points="256,325 259,330 256,335 253,330" fill="#8B6B4A" opacity="0.9"/>

  </g>

  <!-- ═══ MONOGRAM ═══ -->
  <g id="monogram">

    <!--
      ═══════════════════════════════════════════
      LETTER "R" — Serif caps, Art Déco 1940s
      Position: left of center, x≈118, y≈170
      Hand-crafted path: stem + rounded bowl + leg
      ═══════════════════════════════════════════
    -->
    <path d="
      M 118,170
      L 118,340

      M 118,170
      L 118,170
      C 118,170 162,170 175,170
      C 198,170 218,178 222,198
      C 228,222 218,244 196,250
      C 186,253 174,254 162,254

      M 162,254
      L 118,254

      M 175,254
      C 185,254 195,256 200,262
      C 210,272 222,295 236,320
      L 248,340
    "
    fill="none" stroke="#F5EDE6" stroke-width="18" stroke-linecap="square" stroke-linejoin="miter"/>

    <!-- R — filled version using closed paths for solid letter -->
    <!-- Stem -->
    <rect x="108" y="162" width="19" height="187" fill="#F5EDE6"/>

    <!-- Bowl of R -->
    <path d="
      M 127,162
      L 127,162
      C 150,162 180,163 193,167
      C 218,174 232,192 228,216
      C 225,237 210,251 188,257
      C 177,260 162,261 148,261
      L 127,261
      Z
    " fill="#F5EDE6"/>

    <!-- Counter (hole inside bowl) -->
    <path d="
      M 134,175
      C 154,175 178,176 189,180
      C 206,186 215,200 211,216
      C 208,230 197,244 179,247
      C 170,249 156,249 140,249
      L 134,249
      Z
    " fill="#0B0608"/>

    <!-- R bowl inner fill (solid bowl wall) -->
    <path d="
      M 127,175
      L 134,175
      L 134,249
      L 127,249
      Z
    " fill="#F5EDE6"/>

    <!-- Leg of R — diagonal stroke -->
    <path d="
      M 162,261
      C 174,261 186,264 194,272
      C 206,283 220,306 232,330
      L 244,349
      L 227,349
      C 218,334 206,313 196,301
      C 188,292 178,287 165,287
      L 148,287
      L 148,261
      L 162,261
      Z
    " fill="#F5EDE6"/>

    <!--
      ═══════════════════════════════════════════
      LETTER "C" — Serif caps, Art Déco 1940s
      Position: right of center, x≈270, y≈170
      Open arc with terminal serifs
      ═══════════════════════════════════════════
    -->

    <!-- C — main arc body -->
    <path d="
      M 376,210
      C 368,190 352,175 330,169
      C 314,164 296,164 280,169
      C 256,176 240,196 234,220
      C 228,244 232,270 244,290
      C 256,310 276,325 300,330
      C 318,334 338,332 354,324
      C 366,318 376,307 382,294
      L 366,287
      C 361,298 352,306 340,311
      C 326,317 310,318 296,313
      C 276,306 260,291 253,272
      C 246,254 248,232 258,214
      C 268,197 285,186 304,182
      C 319,178 336,180 350,188
      C 360,194 368,202 372,213
      Z
    " fill="#C41E3A" filter="url(#crimson-glow)"/>

    <!-- C — top terminal serif bar -->
    <rect x="352" y="162" width="32" height="15" rx="2" fill="#C41E3A"/>
    <!-- C — bottom terminal serif bar -->
    <rect x="358" y="329" width="30" height="15" rx="2" fill="#C41E3A"/>

    <!-- C — top serif horizontal accent (Art Déco slab) -->
    <rect x="348" y="159" width="36" height="6" fill="#F5EDE6" opacity="0.25"/>
    <rect x="354" y="338" width="34" height="5" fill="#F5EDE6" opacity="0.25"/>

  </g>

  <!-- ═══ TAGLINE TEXT — "RAFAELLA COSTA" as paths ═══ -->
  <!-- Text rendered as individual letter paths, centered at y≈415 -->
  <!-- Using a compact geometric approach: letter width ~11px each, spacing ~15px -->
  <!-- Full string: RAFAELLA COSTA — 13 letters + space = 14 glyphs -->
  <!-- Total approx width: 14 × 15 = 210px, centered at x=256, start x = 151 -->

  <g id="tagline" opacity="0.7">

    <!-- R -->
    <path d="M151,400 L151,430 M151,400 L159,400 C164,400 167,403 167,408 C167,413 164,416 159,416 L151,416 M157,416 L167,430" fill="none" stroke="#F5EDE6" stroke-width="2" stroke-linecap="round"/>

    <!-- A -->
    <path d="M172,430 L179,400 L186,430 M174,421 L184,421" fill="none" stroke="#F5EDE6" stroke-width="2" stroke-linecap="round"/>

    <!-- F -->
    <path d="M190,430 L190,400 L200,400 M190,415 L198,415" fill="none" stroke="#F5EDE6" stroke-width="2" stroke-linecap="round"/>

    <!-- A -->
    <path d="M204,430 L211,400 L218,430 M206,421 L216,421" fill="none" stroke="#F5EDE6" stroke-width="2" stroke-linecap="round"/>

    <!-- E -->
    <path d="M222,430 L222,400 L232,400 M222,415 L230,415 M222,430 L232,430" fill="none" stroke="#F5EDE6" stroke-width="2" stroke-linecap="round"/>

    <!-- L -->
    <path d="M236,400 L236,430 L246,430" fill="none" stroke="#F5EDE6" stroke-width="2" stroke-linecap="round"/>

    <!-- L -->
    <path d="M250,400 L250,430 L260,430" fill="none" stroke="#F5EDE6" stroke-width="2" stroke-linecap="round"/>

    <!-- A -->
    <path d="M264,430 L271,400 L278,430 M266,421 L276,421" fill="none" stroke="#F5EDE6" stroke-width="2" stroke-linecap="round"/>

    <!-- space — dot ornament -->
    <circle cx="289" cy="415" r="2" fill="#C41E3A"/>

    <!-- C -->
    <path d="M302,405 C299,401 294,400 290,402 C285,405 283,411 284,418 C285,424 289,430 295,430 C299,430 303,428 305,425" fill="none" stroke="#F5EDE6" stroke-width="2" stroke-linecap="round"/>

    <!-- O -->
    <ellipse cx="315" cy="415" rx="7" ry="15" fill="none" stroke="#F5EDE6" stroke-width="2"/>

    <!-- S -->
    <path d="M333,403 C330,400 325,400 323,403 C320,407 323,411 328,414 C333,417 336,421 333,425 C331,428 326,430 322,428" fill="none" stroke="#F5EDE6" stroke-width="2" stroke-linecap="round"/>

    <!-- T -->
    <path d="M338,400 L350,400 M344,400 L344,430" fill="none" stroke="#F5EDE6" stroke-width="2" stroke-linecap="round"/>

    <!-- A -->
    <path d="M354,430 L361,400 L368,430 M356,421 L366,421" fill="none" stroke="#F5EDE6" stroke-width="2" stroke-linecap="round"/>

  </g>

  <!-- ═══ SUB-TAGLINE — thin rule + designer label ═══ -->
  <g id="sub-tagline" opacity="0.45">
    <!-- Thin horizontal rules flanking designer label -->
    <line x1="110" y1="454" x2="200" y2="454" stroke="#F5EDE6" stroke-width="1"/>
    <line x1="312" y1="454" x2="402" y2="454" stroke="#F5EDE6" stroke-width="1"/>

    <!-- D E S I G N E R   D E   M O D A — small dots as letterforms hint -->
    <!-- Simple dot-and-dash representation for elegance at this scale -->
    <circle cx="209" cy="454" r="1.5" fill="#C41E3A"/>
    <circle cx="256" cy="454" r="1.5" fill="#8B6B4A"/>
    <circle cx="303" cy="454" r="1.5" fill="#C41E3A"/>

    <!-- "DESIGNER DE MODA" as tiny stroked text paths -->
    <!-- D -->
    <path d="M214,447 L214,461 C214,461 220,461 222,458 C225,455 225,452 222,449 C220,447 214,447 214,447 Z" fill="none" stroke="#F5EDE6" stroke-width="1.2"/>
    <!-- E -->
    <path d="M226,447 L226,461 M226,447 L232,447 M226,454 L231,454 M226,461 L232,461" fill="none" stroke="#F5EDE6" stroke-width="1.2" stroke-linecap="square"/>
    <!-- S -->
    <path d="M237,449 C236,447 233,447 232,449 C231,451 233,453 236,454 C239,456 240,458 239,460 C238,462 235,462 233,461" fill="none" stroke="#F5EDE6" stroke-width="1.2" stroke-linecap="round"/>
    <!-- I -->
    <path d="M242,447 L242,461 M240,447 L244,447 M240,461 L244,461" fill="none" stroke="#F5EDE6" stroke-width="1.2" stroke-linecap="square"/>
    <!-- G -->
    <path d="M252,449 C250,447 247,447 245,449 C243,452 243,457 245,460 C247,462 251,462 253,460 C254,459 254,456 254,456 L250,456" fill="none" stroke="#F5EDE6" stroke-width="1.2" stroke-linecap="round"/>
    <!-- N -->
    <path d="M257,461 L257,447 L264,461 L264,447" fill="none" stroke="#F5EDE6" stroke-width="1.2" stroke-linecap="round"/>
    <!-- E -->
    <path d="M267,447 L267,461 M267,447 L273,447 M267,454 L272,454 M267,461 L273,461" fill="none" stroke="#F5EDE6" stroke-width="1.2" stroke-linecap="square"/>
    <!-- R -->
    <path d="M276,461 L276,447 L280,447 C283,447 284,449 284,451 C284,453 283,454 280,454 L276,454 M279,454 L284,461" fill="none" stroke="#F5EDE6" stroke-width="1.2" stroke-linecap="round"/>

    <!-- · DE · -->
    <circle cx="288" cy="454" r="1" fill="#8B6B4A"/>
    <!-- D -->
    <path d="M291,447 L291,461 C291,461 297,461 299,458 C302,455 302,452 299,449 C297,447 291,447 291,447 Z" fill="none" stroke="#F5EDE6" stroke-width="1.2"/>
    <!-- E -->
    <path d="M303,447 L303,461 M303,447 L309,447 M303,454 L308,454 M303,461 L309,461" fill="none" stroke="#F5EDE6" stroke-width="1.2" stroke-linecap="square"/>
    <circle cx="313" cy="454" r="1" fill="#8B6B4A"/>

  </g>

</svg>
